<svg width="17" height="17" viewBox="0 0 17 17" fill="none" xmlns="http://www.w3.org/2000/svg">
<path fill-rule="evenodd" clip-rule="evenodd" d="M2.02235 6.0715C3.11285 3.4388 5.68188 1.72223 8.5315 1.72223C12.4226 1.72223 15.577 4.87659 15.577 8.76768C15.577 11.6173 13.8604 14.1863 11.2277 15.2768C8.59497 16.3673 5.5646 15.7646 3.54961 13.7496C1.53463 11.7346 0.931847 8.70421 2.02235 6.0715ZM14.2133 8.76768C14.2133 5.6297 11.6695 3.08587 8.5315 3.08587C5.39559 3.09087 2.85469 5.63178 2.84968 8.76768C2.84968 11.9057 5.39352 14.4495 8.5315 14.4495C11.6695 14.4495 14.2133 11.9057 14.2133 8.76768Z" fill="#D6D6D6"/>
<path d="M16.0601 16.3313C15.887 16.3307 15.7211 16.2636 15.5985 16.1446L12.9853 13.5987C12.8105 13.44 12.7386 13.201 12.7977 12.9755C12.8568 12.75 13.0375 12.5739 13.269 12.5163C13.5005 12.4587 13.7458 12.5288 13.9086 12.6991L16.5218 15.245C16.6452 15.3638 16.7147 15.5258 16.7147 15.6948C16.7147 15.8638 16.6452 16.0258 16.5218 16.1446C16.3991 16.2636 16.2333 16.3307 16.0601 16.3313Z" fill="#D6D6D6"/>
</svg>
