<svg width="43" height="43" viewBox="0 0 43 43" fill="none" xmlns="http://www.w3.org/2000/svg">
<g filter="url(#filter0_d)">
<circle cx="21.7455" cy="19.7142" r="16.8988" fill="url(#paint0_linear)"/>
</g>
<path fill-rule="evenodd" clip-rule="evenodd" d="M13.8214 19.3441C15.847 20.4595 17.3441 18.6507 17.9734 17.6609C18.0721 17.4942 18.1346 17.3899 18.161 17.348C18.2532 17.1843 18.3011 17.0823 18.3011 17.0823C18.35 17.1703 18.3988 17.2556 18.4475 17.3383C18.4818 17.4109 18.5472 17.5173 18.6437 17.6574C20.8039 21.0236 22.8199 19.3376 23.6964 18.0349C23.7082 18.0174 23.7253 17.997 23.7712 17.9206C23.9707 17.5678 24.0848 17.3564 24.1137 17.2863C24.1638 17.536 24.2526 17.7834 24.3801 18.0283C25.0838 19.3853 26.7692 20.1129 28.0094 19.6299C28.245 19.5285 28.4626 19.417 28.6623 19.2956V26.9472C28.6623 27.5795 28.1497 28.092 27.5175 28.092H14.9662C14.3339 28.092 13.8214 27.5795 13.8214 26.9472V19.3441V19.3441ZM23.2626 21.6834C22.6304 21.6834 22.1179 22.196 22.1179 22.8282V24.952C22.1179 25.5842 22.6304 26.0967 23.2626 26.0967H24.2831C24.9153 26.0967 25.4279 25.5842 25.4279 24.952V22.8282C25.4279 22.196 24.9153 21.6834 24.2831 21.6834H23.2626ZM17.003 18.0184C15.8929 19.3256 14.7253 19.5858 13.3032 18.249C12.3642 16.7879 12.6253 14.6851 14.183 11.8938C14.4863 11.3503 15.06 11.0135 15.6825 11.0135L26.7256 11.0135C27.341 11.0135 27.9094 11.3428 28.2154 11.8768C30.4381 15.7552 30.2378 18.0474 27.7831 19.1041C26.6373 19.55 24.9757 18.5916 24.6736 17.1676C24.531 16.4952 23.8719 16.4741 23.5842 17.0823C23.5504 17.134 23.5081 17.2253 23.4849 17.2687C23.413 17.4029 23.3405 17.5428 23.2215 17.7154C22.7101 18.457 22.0716 18.9795 21.4471 19.049C20.6336 19.1395 19.7409 18.4966 18.8016 16.8045C18.575 16.3965 17.9816 16.4165 17.7831 16.8389C17.7523 16.9044 17.686 17.0309 17.5867 17.1975C17.4193 17.4781 17.2236 17.7588 17.003 18.0184Z" fill="white"/>
<mask id="mask0" mask-type="alpha" maskUnits="userSpaceOnUse" x="12" y="11" width="18" height="18">
<path fill-rule="evenodd" clip-rule="evenodd" d="M13.8214 19.3441C15.847 20.4595 17.3441 18.6507 17.9734 17.6609C18.0721 17.4942 18.1346 17.3899 18.161 17.348C18.2532 17.1843 18.3011 17.0823 18.3011 17.0823C18.35 17.1703 18.3988 17.2556 18.4475 17.3383C18.4818 17.4109 18.5472 17.5173 18.6437 17.6574C20.8039 21.0236 22.8199 19.3376 23.6964 18.0349C23.7082 18.0174 23.7253 17.997 23.7712 17.9206C23.9707 17.5678 24.0848 17.3564 24.1137 17.2863C24.1638 17.536 24.2526 17.7834 24.3801 18.0283C25.0838 19.3853 26.7692 20.1129 28.0094 19.6299C28.245 19.5285 28.4626 19.417 28.6623 19.2956V26.9472C28.6623 27.5795 28.1497 28.092 27.5175 28.092H14.9662C14.3339 28.092 13.8214 27.5795 13.8214 26.9472V19.3441V19.3441ZM23.2626 21.6834C22.6304 21.6834 22.1179 22.196 22.1179 22.8282V24.952C22.1179 25.5842 22.6304 26.0967 23.2626 26.0967H24.2831C24.9153 26.0967 25.4279 25.5842 25.4279 24.952V22.8282C25.4279 22.196 24.9153 21.6834 24.2831 21.6834H23.2626ZM17.003 18.0184C15.8929 19.3256 14.7253 19.5858 13.3032 18.249C12.3642 16.7879 12.6253 14.6851 14.183 11.8938C14.4863 11.3503 15.06 11.0135 15.6825 11.0135L26.7256 11.0135C27.341 11.0135 27.9094 11.3428 28.2154 11.8768C30.4381 15.7552 30.2378 18.0474 27.7831 19.1041C26.6373 19.55 24.9757 18.5916 24.6736 17.1676C24.531 16.4952 23.8719 16.4741 23.5842 17.0823C23.5504 17.134 23.5081 17.2253 23.4849 17.2687C23.413 17.4029 23.3405 17.5428 23.2215 17.7154C22.7101 18.457 22.0716 18.9795 21.4471 19.049C20.6336 19.1395 19.7409 18.4966 18.8016 16.8045C18.575 16.3965 17.9816 16.4165 17.7831 16.8389C17.7523 16.9044 17.686 17.0309 17.5867 17.1975C17.4193 17.4781 17.2236 17.7588 17.003 18.0184Z" fill="white"/>
</mask>
<g mask="url(#mask0)">
</g>
<defs>
<filter id="filter0_d" x="0.84668" y="0.815399" width="41.7976" height="41.7976" filterUnits="userSpaceOnUse" color-interpolation-filters="sRGB">
<feFlood flood-opacity="0" result="BackgroundImageFix"/>
<feColorMatrix in="SourceAlpha" type="matrix" values="0 0 0 0 0 0 0 0 0 0 0 0 0 0 0 0 0 0 127 0"/>
<feOffset dy="2"/>
<feGaussianBlur stdDeviation="2"/>
<feColorMatrix type="matrix" values="0 0 0 0 0.67451 0 0 0 0 0.486275 0 0 0 0 0.964706 0 0 0 0.426546 0"/>
<feBlend mode="normal" in2="BackgroundImageFix" result="effect1_dropShadow"/>
<feBlend mode="normal" in="SourceGraphic" in2="effect1_dropShadow" result="shape"/>
</filter>
<linearGradient id="paint0_linear" x1="5.63135" y1="4.38474" x2="5.63135" y2="36.613" gradientUnits="userSpaceOnUse">
<stop stop-color="#B381FC"/>
<stop offset="1" stop-color="#946DE6"/>
</linearGradient>
</defs>
</svg>
