<svg width="38" height="43" viewBox="0 0 38 43" fill="none" xmlns="http://www.w3.org/2000/svg">
<g filter="url(#filter0_d)">
<circle cx="19.2494" cy="19.5256" r="16.8988" fill="url(#paint0_linear)"/>
</g>
<path fill-rule="evenodd" clip-rule="evenodd" d="M13.7984 10.9701C13.7984 10.5036 14.1767 10.1253 14.6432 10.1253H23.6221C24.0887 10.1253 24.4669 10.5036 24.4669 10.9701V12.7321C24.4669 13.1987 24.0887 13.5769 23.6221 13.5769H14.6432C14.1767 13.5769 13.7984 13.1987 13.7984 12.7321V10.9701ZM14.7398 15.9247V14.4703H23.5256V15.8816L25.2707 17.38C25.4576 17.5405 25.5651 17.7746 25.5651 18.0209V27.7703C25.5651 28.2369 25.1869 28.6151 24.7203 28.6151H13.545C13.0784 28.6151 12.7002 28.2369 12.7002 27.7703V18.0272C12.7002 17.7772 12.8109 17.5401 13.0026 17.3796L14.7398 15.9247ZM18.0895 18.6873C17.9557 18.6873 17.8404 18.7814 17.8136 18.9125L17.0028 22.8808C16.9671 23.0553 17.1005 23.2187 17.2787 23.2187H18.2843C18.4399 23.2187 18.5659 23.3448 18.5659 23.5003V25.16C18.5659 25.4439 18.9383 25.5494 19.0873 25.3078L21.5113 21.3745C21.627 21.1868 21.492 20.9451 21.2716 20.9451H20.6005C20.4003 20.9451 20.2641 20.7421 20.3399 20.5569L20.946 19.0755C21.0218 18.8903 20.8856 18.6873 20.6854 18.6873H18.0895Z" fill="white"/>
<mask id="mask0" mask-type="alpha" maskUnits="userSpaceOnUse" x="12" y="10" width="14" height="19">
<path fill-rule="evenodd" clip-rule="evenodd" d="M13.7984 10.9701C13.7984 10.5036 14.1767 10.1253 14.6432 10.1253H23.6221C24.0887 10.1253 24.4669 10.5036 24.4669 10.9701V12.7321C24.4669 13.1987 24.0887 13.5769 23.6221 13.5769H14.6432C14.1767 13.5769 13.7984 13.1987 13.7984 12.7321V10.9701ZM14.7398 15.9247V14.4703H23.5256V15.8816L25.2707 17.38C25.4576 17.5405 25.5651 17.7746 25.5651 18.0209V27.7703C25.5651 28.2369 25.1869 28.6151 24.7203 28.6151H13.545C13.0784 28.6151 12.7002 28.2369 12.7002 27.7703V18.0272C12.7002 17.7772 12.8109 17.5401 13.0026 17.3796L14.7398 15.9247ZM18.0895 18.6873C17.9557 18.6873 17.8404 18.7814 17.8136 18.9125L17.0028 22.8808C16.9671 23.0553 17.1005 23.2187 17.2787 23.2187H18.2843C18.4399 23.2187 18.5659 23.3448 18.5659 23.5003V25.16C18.5659 25.4439 18.9383 25.5494 19.0873 25.3078L21.5113 21.3745C21.627 21.1868 21.492 20.9451 21.2716 20.9451H20.6005C20.4003 20.9451 20.2641 20.7421 20.3399 20.5569L20.946 19.0755C21.0218 18.8903 20.8856 18.6873 20.6854 18.6873H18.0895Z" fill="white"/>
</mask>
<g mask="url(#mask0)">
</g>
<defs>
<filter id="filter0_d" x="-1.64941" y="0.62677" width="41.7976" height="41.7976" filterUnits="userSpaceOnUse" color-interpolation-filters="sRGB">
<feFlood flood-opacity="0" result="BackgroundImageFix"/>
<feColorMatrix in="SourceAlpha" type="matrix" values="0 0 0 0 0 0 0 0 0 0 0 0 0 0 0 0 0 0 127 0"/>
<feOffset dy="2"/>
<feGaussianBlur stdDeviation="2"/>
<feColorMatrix type="matrix" values="0 0 0 0 0 0 0 0 0 0.886275 0 0 0 0 0.45098 0 0 0 0.554772 0"/>
<feBlend mode="normal" in2="BackgroundImageFix" result="effect1_dropShadow"/>
<feBlend mode="normal" in="SourceGraphic" in2="effect1_dropShadow" result="shape"/>
</filter>
<linearGradient id="paint0_linear" x1="3.13526" y1="4.19611" x2="3.13526" y2="36.4244" gradientUnits="userSpaceOnUse">
<stop stop-color="#A7F17C"/>
<stop offset="1" stop-color="#00E270"/>
</linearGradient>
</defs>
</svg>
