<svg width="38" height="43" viewBox="0 0 38 43" fill="none" xmlns="http://www.w3.org/2000/svg">
<g filter="url(#filter0_d)">
<circle cx="19.0467" cy="19.5256" r="16.8988" fill="url(#paint0_linear)"/>
</g>
<g filter="url(#filter1_d)">
<path fill-rule="evenodd" clip-rule="evenodd" d="M15.2497 11.1844C13.209 11.1844 11.5547 12.8387 11.5547 14.8794C11.5547 16.9201 13.209 18.5744 15.2497 18.5744H18.9453V14.8787C18.9453 12.8384 17.2914 11.1844 15.251 11.1844H15.2497Z" fill="white"/>
<path fill-rule="evenodd" clip-rule="evenodd" d="M27.7734 14.8787C27.7734 12.838 26.119 11.1837 24.0784 11.1837C22.0376 11.1837 20.3833 12.838 20.3833 14.8787V18.5744H24.079C26.1193 18.5744 27.7733 16.9205 27.7733 14.8801V14.8787H27.7734Z" fill="white"/>
<path fill-rule="evenodd" clip-rule="evenodd" d="M24.079 27.3885C26.1196 27.3885 27.774 25.7342 27.774 23.6935C27.774 21.6528 26.1196 19.9985 24.079 19.9985H20.3833V23.6941C20.3833 25.7344 22.0373 27.3884 24.0777 27.3884H24.079V27.3885Z" fill="white"/>
<mask id="mask0" mask-type="alpha" maskUnits="userSpaceOnUse" x="20" y="19" width="8" height="9">
<path fill-rule="evenodd" clip-rule="evenodd" d="M24.079 27.3885C26.1196 27.3885 27.774 25.7342 27.774 23.6935C27.774 21.6528 26.1196 19.9985 24.079 19.9985H20.3833V23.6941C20.3833 25.7344 22.0373 27.3884 24.0777 27.3884H24.079V27.3885Z" fill="white"/>
</mask>
<g mask="url(#mask0)">
</g>
<path fill-rule="evenodd" clip-rule="evenodd" d="M11.5552 23.6928C11.5552 25.7335 13.2095 27.3878 15.2502 27.3878C17.2909 27.3878 18.9452 25.7335 18.9452 23.6928V19.9985H15.2495C13.2091 19.9986 11.5552 21.6524 11.5552 23.6928V23.6928Z" fill="white"/>
</g>
<defs>
<filter id="filter0_d" x="-1.85205" y="0.62677" width="41.7976" height="41.7976" filterUnits="userSpaceOnUse" color-interpolation-filters="sRGB">
<feFlood flood-opacity="0" result="BackgroundImageFix"/>
<feColorMatrix in="SourceAlpha" type="matrix" values="0 0 0 0 0 0 0 0 0 0 0 0 0 0 0 0 0 0 127 0"/>
<feOffset dy="2"/>
<feGaussianBlur stdDeviation="2"/>
<feColorMatrix type="matrix" values="0 0 0 0 0.345098 0 0 0 0 0.54902 0 0 0 0 0.956863 0 0 0 0.560009 0"/>
<feBlend mode="normal" in2="BackgroundImageFix" result="effect1_dropShadow"/>
<feBlend mode="normal" in="SourceGraphic" in2="effect1_dropShadow" result="shape"/>
</filter>
<filter id="filter1_d" x="8.55469" y="8.18369" width="22.2193" height="22.2048" filterUnits="userSpaceOnUse" color-interpolation-filters="sRGB">
<feFlood flood-opacity="0" result="BackgroundImageFix"/>
<feColorMatrix in="SourceAlpha" type="matrix" values="0 0 0 0 0 0 0 0 0 0 0 0 0 0 0 0 0 0 127 0"/>
<feOffset/>
<feGaussianBlur stdDeviation="1.5"/>
<feColorMatrix type="matrix" values="0 0 0 0 0.482353 0 0 0 0 0.67451 0 0 0 0 1 0 0 0 1 0"/>
<feBlend mode="normal" in2="BackgroundImageFix" result="effect1_dropShadow"/>
<feBlend mode="normal" in="SourceGraphic" in2="effect1_dropShadow" result="shape"/>
</filter>
<linearGradient id="paint0_linear" x1="2.93262" y1="4.19611" x2="2.93262" y2="36.4244" gradientUnits="userSpaceOnUse">
<stop stop-color="#84B6FF"/>
<stop offset="1" stop-color="#4F84F2"/>
</linearGradient>
</defs>
</svg>
